<?xml version="1.0" standalone="no"?>
<!DOCTYPE svg PUBLIC "-//W3C//DTD SVG 20010904//EN"
 "http://www.w3.org/TR/2001/REC-SVG-20010904/DTD/svg10.dtd">
<svg version="1.0" xmlns="http://www.w3.org/2000/svg"
 width="572.000000pt" height="572.000000pt" viewBox="0 0 572.000000 572.000000"
 preserveAspectRatio="xMidYMid meet">
<metadata>
Created by potrace 1.14, written by Peter Selinger 2001-2017
</metadata>
<g transform="translate(0.000000,572.000000) scale(0.100000,-0.100000)"
fill="#000000" stroke="none">
<path d="M143 4334 l-22 -23 2 -1383 2 -1383 23 -47 c108 -219 424 -196 493
34 11 36 15 2754 4 2788 -10 32 -61 39 -274 38 -199 -1 -205 -1 -228 -24z"/>
<path d="M3664 4337 l-25 -22 1 -1442 c0 -792 2 -1448 6 -1456 11 -31 54 -37
252 -37 223 0 234 3 252 69 13 48 29 55 71 30 81 -46 168 -87 217 -103 109
-36 284 -50 397 -31 17 3 48 8 70 11 108 17 314 112 415 191 174 138 301 339
359 568 20 81 23 103 28 242 6 157 -8 259 -53 398 -85 262 -278 489 -505 598
-163 77 -258 97 -449 93 -171 -4 -270 -29 -408 -101 -132 -69 -122 -110 -122
480 0 487 0 492 -21 511 -19 17 -40 19 -240 21 -213 2 -220 1 -245 -20z m1100
-1398 c172 -33 312 -142 390 -304 44 -92 60 -175 53 -278 -10 -149 -70 -272
-183 -375 -312 -287 -806 -118 -894 306 -15 72 -8 191 15 265 44 143 167 288
291 343 113 49 220 63 328 43z"/>
<path d="M1889 3444 c-410 -78 -710 -397 -793 -843 -29 -156 -10 -424 39 -560
40 -111 94 -219 137 -276 92 -123 166 -194 272 -263 57 -37 219 -115 229 -110
1 1 18 -4 37 -10 101 -33 309 -46 429 -28 94 15 243 74 308 122 57 43 85 32
98 -38 3 -13 14 -31 26 -40 19 -16 46 -18 230 -18 196 0 210 1 229 20 15 15
20 34 21 73 0 28 0 468 1 976 l0 923 -21 21 c-20 21 -30 21 -229 21 -126 -1
-216 -5 -227 -12 -11 -5 -24 -27 -30 -47 -14 -53 -37 -65 -78 -41 -75 44 -95
54 -160 79 -37 15 -78 29 -90 31 -12 3 -22 5 -22 6 0 2 -11 4 -88 18 -67 13
-240 11 -318 -4z m392 -513 c291 -91 450 -410 357 -716 -20 -66 -78 -157 -138
-215 -74 -73 -164 -120 -280 -147 -24 -5 -173 -4 -197 2 -13 3 -31 7 -40 9
-73 17 -163 67 -230 129 -191 176 -233 464 -102 694 74 129 226 236 369 259
19 3 36 7 38 8 10 10 169 -7 223 -23z"/>
</g>
</svg>
