<svg xmlns="http://www.w3.org/2000/svg" style="display: none;">

    <symbol id="logo" width="124" height="38" viewBox="0 0 124 38" fill="none">
        <path d="M0 29.6714V11.2929C0 10.9238 0.290058 10.6286 0.652632 10.6286H4.27836C4.64094 10.6286 4.93099 10.9238 4.93099 11.2929C4.93099 11.6619 5.29357 11.8833 5.58363 11.6619C6.9614 10.7024 8.55673 10.2595 10.152 10.2595C12.6175 10.2595 14.8655 11.3667 16.3158 12.9905C16.4608 13.1381 16.7509 13.2119 16.9684 12.9905C18.4912 11.5143 20.8117 10.1857 23.4947 10.1857C26.1778 10.1857 28.7158 11.4405 30.3111 13.3595C31.5439 14.9095 32.269 16.9024 32.269 19.8548V29.5976C32.269 29.9667 31.9789 30.2619 31.5439 30.2619H27.7006C27.338 30.2619 26.9754 29.9667 26.9754 29.5976V19.6333C26.9754 17.8619 26.6129 16.9024 26.0328 16.2381C25.2351 15.3524 24.0749 14.9833 23.1322 14.9833C21.0292 14.9833 19.2889 16.3857 18.5637 17.419C18.4912 17.4929 18.4912 17.6405 18.4912 17.7143C18.5637 18.3048 18.6363 19.0429 18.6363 19.781V29.5238C18.6363 29.8929 18.3462 30.1881 17.9111 30.1881H14.0678C13.7053 30.1881 13.3427 29.8929 13.3427 29.5238V19.6333C13.3427 17.8619 12.9801 16.9024 12.4 16.2381C11.6023 15.3524 10.4421 14.9833 9.49942 14.9833C7.39649 14.9833 5.87368 16.3857 5.07602 17.2714C5.00351 17.3452 5.00351 17.419 5.00351 17.5667V29.5238C5.00351 29.8929 4.71345 30.1881 4.35088 30.1881H0.652632C0.290058 30.3357 0 30.0405 0 29.6714ZM39.9556 0.221428C41.8409 0.221428 43.3637 1.69762 43.3637 3.61667C43.3637 5.53571 41.8409 7.0119 39.9556 7.0119C38.0702 7.0119 36.5474 5.53571 36.5474 3.61667C36.6199 1.69762 38.1427 0.221428 39.9556 0.221428ZM41.9135 30.3357H38.0702C37.7076 30.3357 37.345 30.0405 37.345 29.6714V12.8429C37.345 11.3667 38.5053 10.1857 39.9556 10.1857C41.4058 10.1857 42.5661 11.3667 42.5661 12.8429V29.6714C42.5661 30.0405 42.276 30.3357 41.9135 30.3357ZM56.4889 15.7214L59.7521 10.9238C59.8971 10.7762 60.1146 10.6286 60.3322 10.6286H64.538C65.1181 10.6286 65.4082 11.2929 65.1181 11.7357L59.5345 19.5595C59.462 19.7071 59.462 19.9286 59.5345 20.0762L65.9883 29.2286C66.2784 29.6714 65.9883 30.3357 65.4082 30.3357H60.9123C60.6947 30.3357 60.4772 30.2619 60.3322 30.0405L56.3439 24.2095C56.1988 23.9881 55.8363 23.9881 55.6912 24.2095L51.7029 30.0405C51.5579 30.1881 51.3404 30.3357 51.1228 30.3357H46.6269C46.0468 30.3357 45.7567 29.6714 46.0468 29.2286L52.5006 20.0762C52.5731 19.9286 52.5731 19.7071 52.5006 19.5595L47.1345 11.6619C46.8444 11.219 47.1345 10.5548 47.7146 10.5548H51.993C52.2105 10.5548 52.4281 10.6286 52.5731 10.85L55.8363 15.6476C55.9813 15.9429 56.2713 15.9429 56.4889 15.7214ZM72.3696 30.7048C70.9193 30.7048 69.7591 29.5238 69.7591 28.0476V2.14048C69.7591 1.77143 70.0491 1.47619 70.4117 1.47619H74.255C74.6175 1.47619 74.9076 1.77143 74.9076 2.14048V28.1214C74.9076 29.5238 73.8199 30.7048 72.3696 30.7048ZM104.494 30.3357H108.119C108.482 30.3357 108.772 30.0405 108.772 29.6714C108.772 29.3024 109.135 29.081 109.425 29.3024C110.875 30.3357 112.47 30.7786 114.138 30.7786C117.039 30.7786 119.722 29.45 121.462 27.4571C122.985 25.6857 123.927 23.25 123.927 20.519C123.927 14.7619 119.722 10.2595 114.428 10.2595C112.615 10.2595 111.02 10.7024 109.642 11.5881C109.352 11.8095 108.989 11.5881 108.989 11.219V2.14048C108.989 1.77143 108.699 1.47619 108.337 1.47619H104.494C104.131 1.47619 103.841 1.77143 103.841 2.14048V29.6714C103.841 30.0405 104.131 30.3357 104.494 30.3357ZM113.775 15.131C116.676 15.131 119.069 17.4929 119.069 20.519C119.069 23.4714 116.676 25.9071 113.775 25.9071C110.875 25.9071 108.482 23.4714 108.482 20.519C108.554 17.4929 110.947 15.131 113.775 15.131ZM98.4749 10.6286H94.8491C94.4866 10.6286 94.1965 10.9238 94.1965 11.2929C94.1965 11.6619 93.8339 11.8833 93.5439 11.6619C92.0936 10.7024 90.4257 10.1857 88.5404 10.1857C83.2468 10.1857 79.0409 14.6143 79.0409 20.4452C79.0409 23.1762 79.9836 25.6119 81.5064 27.3833C83.2468 29.45 85.9298 30.7048 88.8304 30.7048C90.5708 30.7048 92.0936 30.2619 93.5439 29.2286C93.8339 29.0071 94.1965 29.2286 94.1965 29.5976V29.6714C94.1965 30.0405 94.4866 30.3357 94.8491 30.3357H98.4749C98.8374 30.3357 99.1275 30.0405 99.1275 29.6714V11.2929C99.2 10.9238 98.8374 10.6286 98.4749 10.6286ZM89.1205 25.8333C86.2199 25.8333 83.8269 23.3976 83.8269 20.4452C83.8269 17.419 86.2199 15.0571 89.1205 15.0571C92.0211 15.0571 94.414 17.419 94.414 20.4452C94.4865 23.4714 92.0936 25.8333 89.1205 25.8333Z" fill="#F5A61C"/>
    </symbol>

    <symbol id="gam" width="32" height="32" viewBox="0 0 32 32" fill="none">
        <path d="M7 10H25" stroke-width="2"/>
        <path d="M7 16H25" stroke-width="2"/>
        <path d="M7 22H25" stroke-width="2"/>
    </symbol>

    <symbol id="icon-yelp" width="24" height="24" viewBox="0 0 24 24" fill="none">         
        <path d="M5.7065 11.2653L10.3932 13.5432C11.2957 13.9835 11.1553 15.3014 10.1821 15.5456L5.12384 16.802C4.97486 16.8388 4.81963 16.8436 4.66863 16.816C4.51762 16.7884 4.37438 16.729 4.24858 16.642C4.12278 16.5549 4.01737 16.4421 3.93946 16.3113C3.86155 16.1805 3.81297 16.0347 3.797 15.8837C3.64135 14.536 3.78545 13.1709 4.21923 11.884C4.42717 11.2694 5.12806 10.9835 5.70756 11.2653H5.7065ZM7.7775 22.4795C8.897 23.244 10.1719 23.7576 11.5131 23.9842C11.6645 24.0093 11.8195 24.0021 11.9679 23.963C12.1162 23.9239 12.2543 23.8538 12.3729 23.7575C12.4915 23.6612 12.5879 23.5409 12.6555 23.4047C12.7232 23.2685 12.7605 23.1195 12.765 22.9679L12.9476 17.7724C12.9814 16.7748 11.7485 16.2771 11.0751 17.018L7.58434 20.882C7.48211 20.9956 7.40545 21.1294 7.35941 21.2745C7.31338 21.4196 7.29901 21.5727 7.31727 21.7237C7.33553 21.8747 7.38599 22.0202 7.46533 22.1505C7.54466 22.2807 7.65107 22.3929 7.7775 22.4795ZM14.6133 17.3268L17.3788 21.7345C17.4596 21.8638 17.5676 21.9744 17.6953 22.0589C17.8231 22.1433 17.9678 22.1997 18.1195 22.2241C18.2712 22.2486 18.4265 22.2405 18.5748 22.2005C18.7231 22.1605 18.8609 22.0895 18.9791 21.9922C20.0289 21.1268 20.8751 20.0453 21.4586 18.8232C21.524 18.6855 21.5593 18.5357 21.5621 18.3836C21.5649 18.2315 21.5351 18.0805 21.4747 17.9406C21.4143 17.8006 21.3246 17.6749 21.2116 17.5717C21.0986 17.4684 20.9648 17.39 20.8189 17.3414L15.8599 15.7376C14.9046 15.4329 14.0813 16.4785 14.6133 17.3268ZM21.5905 11.1286C21.0494 9.88753 20.2398 8.77876 19.2187 7.88022C19.1043 7.78005 18.9695 7.70528 18.8234 7.66095C18.6773 7.61662 18.5233 7.60377 18.3718 7.62325C18.2202 7.64273 18.0747 7.69409 17.9449 7.77388C17.8151 7.85367 17.7042 7.96003 17.6195 8.08579L14.7019 12.3954C14.1425 13.2249 14.9236 14.2987 15.8873 14.0221L20.9033 12.5926C21.5293 12.4089 21.8491 11.7244 21.5894 11.1286H21.5905ZM6.61006 1.41379C6.47629 1.47849 6.35739 1.56968 6.26074 1.68169C6.16408 1.7937 6.09174 1.92414 6.04819 2.06493C6.00465 2.20572 5.99082 2.35385 6.00758 2.50014C6.02434 2.64643 6.07132 2.78776 6.14561 2.91535L11.0434 11.3727C11.5923 12.3192 13.0468 11.93 13.0468 10.8385V1.07153C13.0484 0.924755 13.0192 0.779256 12.9608 0.644281C12.9025 0.509306 12.8164 0.387807 12.7079 0.287509C12.5995 0.187211 12.4712 0.110307 12.3311 0.0616867C12.191 0.0130665 12.0422 -0.00620641 11.8942 0.00509311C10.8069 0.0885714 8.82145 0.365093 6.61006 1.41588V1.41379Z" fill="black"/>
    </symbol>

    <symbol id="icon-fb" width="24" height="24" viewBox="0 0 24 24" fill="none">
        <path d="M13.5878 23.9006V12.9463H16.0689L16.6289 8.664H13.5878V6.07429C13.5878 4.78057 13.8678 3.98286 15.5478 3.98286H16.7222V0.2C16.3489 0.0982857 16.0144 0 14.6144 0C11.5344 0 9.48111 1.992 9.48111 5.57714V8.76343H7V13.0457H9.48111V24L13.5878 23.9006Z" fill="black"/>
    </symbol>

    <symbol id="icon-google" width="24" height="24" viewBox="0 0 24 24" fill="none">
        <g clip-path="url(#clip0)">
        <path d="M12.2261 10.2816H22.824C22.9413 10.9788 23 11.646 23 12.2808C23 14.5416 22.5563 16.56 21.6702 18.336C20.7829 20.112 19.5191 21.5004 17.8764 22.5C16.2338 23.4996 14.3516 24 12.2261 24C10.7161 24.0042 9.22377 23.6814 7.85544 23.0544C6.47188 22.4244 5.27777 21.5724 4.27433 20.4996C3.27088 19.4268 2.47399 18.1512 1.88488 16.6716C1.2933 15.1829 0.993088 13.598 0.999994 12C0.999994 10.3644 1.29455 8.80804 1.88488 7.32844C2.47522 5.84884 3.27088 4.57324 4.27433 3.50044C5.28354 2.42315 6.50139 1.55421 7.85666 0.944444C9.22472 0.318097 10.7166 -0.004359 12.2261 4.45006e-05C15.1497 4.45006e-05 17.6601 1.04644 19.755 3.14044L16.6994 6.28084C15.5017 5.04124 14.0106 4.42084 12.2261 4.42084C10.9697 4.42084 9.80733 4.76044 8.74033 5.43724C7.67333 6.11404 6.82755 7.03324 6.20422 8.19604C5.57751 9.36888 5.25589 10.6757 5.26799 12C5.26799 13.3752 5.58088 14.6436 6.20422 15.804C6.82755 16.9644 7.67333 17.886 8.74033 18.5628C9.77534 19.2303 10.9878 19.5835 12.2261 19.578C13.0743 19.578 13.8541 19.4532 14.5654 19.2036C15.2768 18.954 15.861 18.6396 16.3193 18.2652C16.7777 17.8908 17.1773 17.4636 17.5171 16.9848C17.8593 16.5048 18.1099 16.0524 18.2712 15.6252C18.4325 15.198 18.5413 14.7912 18.6 14.406H12.2261V10.2816Z" fill="black"/>
        </g>
        <defs>
        <clipPath id="clip0">
        <rect width="22" height="24" fill="white" transform="translate(1)"/>
        </clipPath>
        </defs>
    </symbol>

    <symbol id="icon-inst" width="24" height="24" viewBox="0 0 24 24" fill="none">
        <path d="M23.9817 12.0251C23.9817 13.7736 23.9931 15.5222 23.9817 17.2708C23.9691 21.0673 21.0457 23.9908 17.2491 23.9908C13.752 24.0022 10.2549 24.0022 6.75771 23.9908C2.92229 23.9771 0.0114286 21.0673 0 17.2205V6.80449C0.0114286 2.93249 2.92229 0.0216311 6.79429 0.00905971C10.2549 -0.00236886 13.7017 -0.00236886 17.1611 0.00905971C21.0834 0.0216311 23.9691 2.90735 23.9817 6.84106C23.9931 8.56563 23.9817 10.2891 23.9817 12.0251ZM12.0034 5.35534C11.128 5.35095 10.2603 5.52015 9.45066 5.85315C8.641 6.18614 7.90538 6.67634 7.28633 7.29539C6.66728 7.91444 6.17708 8.65006 5.84409 9.45972C5.51109 10.2694 5.34189 11.137 5.34629 12.0125C5.34342 12.8832 5.5126 13.7458 5.84409 14.5509C6.17557 15.356 6.66285 16.0877 7.27793 16.704C7.893 17.3202 8.62376 17.8089 9.42823 18.1419C10.2327 18.4749 11.095 18.6457 11.9657 18.6445C12.8414 18.6533 13.7102 18.4881 14.5216 18.1585C15.333 17.829 16.0709 17.3416 16.6925 16.7247C17.3141 16.1077 17.8071 15.3735 18.1427 14.5647C18.4784 13.7558 18.6502 12.8883 18.648 12.0125C18.6528 11.138 18.4844 10.2712 18.1523 9.46211C17.8203 8.65306 17.3312 7.91782 16.7134 7.29885C16.0956 6.67987 15.3613 6.18943 14.5529 5.85585C13.7445 5.52227 12.878 5.35216 12.0034 5.35534ZM21.3211 4.00677C21.3211 3.3062 20.7211 2.69477 20.0217 2.66963C19.2971 2.64449 18.6606 3.2822 18.648 4.00677C18.648 4.70506 19.2469 5.31763 19.9474 5.34277C20.6834 5.36792 21.3211 4.74277 21.3211 4.00563V4.00677Z" fill="black"/>
        <path d="M15.9875 12.0263C15.9868 12.5519 15.8818 13.0723 15.6788 13.5571C15.4757 14.042 15.1785 14.4818 14.8045 14.8511C14.4304 15.2204 13.9868 15.5119 13.4993 15.7087C13.0119 15.9055 12.4903 16.0037 11.9646 15.9977C10.9128 15.9896 9.9068 15.5664 9.1654 14.8203C8.42401 14.0742 8.00724 13.0655 8.00576 12.0137C8.00381 11.4876 8.10579 10.9662 8.30584 10.4796C8.5059 9.99302 8.80009 9.55071 9.17154 9.17809C9.54299 8.80548 9.98437 8.50989 10.4704 8.30831C10.9563 8.10673 11.4773 8.00311 12.0035 8.00342C12.5298 8.00385 13.0509 8.10848 13.5366 8.31129C14.0223 8.51409 14.463 8.81104 14.8334 9.18502C15.2038 9.55901 15.4964 10.0026 15.6945 10.4903C15.8926 10.9779 15.9922 11.5 15.9875 12.0263Z" fill="black"/>
    </symbol>

    <symbol id="icon-twit" width="28" height="24" viewBox="0 0 28 24" fill="none">
        <g clip-path="url(#clip0)">
        <path d="M28 2.69334C26.9519 3.15831 25.84 3.46348 24.7013 3.59867C25.9013 2.88108 26.799 1.75116 27.2267 0.420005C26.099 1.08932 24.8652 1.561 23.5787 1.81467C23.0414 1.24097 22.3919 0.783841 21.6705 0.471672C20.9492 0.159503 20.1713 -0.00104186 19.3853 5.08767e-06C15.676 5.08767e-06 12.9507 3.46001 13.7893 7.05334C11.5051 6.93884 9.27052 6.34512 7.2307 5.31074C5.19088 4.27636 3.39147 2.82446 1.94933 1.04934C1.21473 2.31423 0.989612 3.81147 1.31979 5.23645C1.64996 6.66143 2.51062 7.90709 3.72667 8.72001C2.81499 8.69074 1.92353 8.44388 1.12667 8.00001C1.06133 10.664 2.96933 13.1547 5.73333 13.7093C4.88714 13.9389 3.99968 13.9722 3.13867 13.8067C3.50551 14.9482 4.22008 15.9465 5.18236 16.6618C6.14465 17.3771 7.30651 17.7737 8.50533 17.796C6.09705 19.6838 3.03809 20.5388 0 20.1733C2.62646 21.8612 5.68328 22.7573 8.80533 22.7547C19.472 22.7547 25.4987 13.7467 25.1333 5.668C26.2578 4.85442 27.2285 3.84715 28 2.69334Z" fill="black"/>
        </g>
        <defs>
        <clipPath id="clip0">
        <rect width="28" height="24" fill="white"/>
        </clipPath>
        </defs>
    </symbol>

</svg>

<svg width="124" height="38">
    <use xLink:href="img/sprite.svg#logo"></use>
</svg>